<svg xmlns="http://www.w3.org/2000/svg" width="32" height="32" fill="none" viewBox="0 0 128 128">
  <path fill="#275F84" d="M0 49.455C0 22.142 22.142 0 49.455 0h29.09C105.859 0 128 22.142 128 49.455v29.09C128 105.859 105.858 128 78.546 128H49.454C22.143 128 0 105.858 0 78.546V49.454Z"/>
  <path fill="#FFE358" d="M29.09 78.852c0 5.465 4.56 9.898 10.183 9.898s10.182-4.433 10.182-9.898c0-4.008-5.977-7.778-5.977-14.848 0-6.363 5.977-10.84 5.977-14.847 0-5.466-4.559-9.898-10.182-9.898S29.09 43.69 29.09 49.156c0 4.007 5.977 8.484 5.977 14.847 0 6.363-5.977 10.84-5.977 14.848Zm49.455-60.808c0-5.466 4.559-9.899 10.182-9.899s10.182 4.433 10.182 9.899c0 1.72-1.103 3.398-2.36 5.312-1.672 2.542-3.617 5.502-3.617 9.535 0 3.548 1.858 6.51 3.502 9.13 1.305 2.08 2.475 3.944 2.475 5.718 0 .237-.009.473-.026.707.017.233.026.469.026.706 0 1.722-1.103 3.399-2.36 5.313-1.672 2.542-3.617 5.501-3.617 9.535 0 3.548 1.858 6.509 3.502 9.13 1.305 2.08 2.475 3.944 2.475 5.717 0 .238-.009.474-.026.707.017.234.026.47.026.707 0 1.773-1.17 3.639-2.475 5.718-1.644 2.62-3.502 5.582-3.502 9.13 0 4.033 1.945 6.993 3.616 9.535 1.258 1.914 2.361 3.591 2.361 5.312 0 5.466-4.559 9.899-10.182 9.899s-10.182-4.433-10.182-9.899c0-1.773 1.17-3.638 2.475-5.717 1.644-2.621 3.502-5.583 3.502-9.13 0-3.548-1.858-6.51-3.502-9.13-1.305-2.08-2.475-3.945-2.475-5.718 0-.237.009-.473.026-.707a9.794 9.794 0 0 1-.026-.707c0-1.773 1.17-3.638 2.475-5.717 1.644-2.621 3.502-5.582 3.502-9.13 0-3.548-1.858-6.51-3.502-9.13-1.305-2.08-2.475-3.944-2.475-5.718 0-.237.009-.473.026-.706a9.793 9.793 0 0 1-.026-.707c0-1.773 1.17-3.639 2.475-5.718 1.644-2.62 3.502-5.582 3.502-9.13 0-3.548-1.858-6.509-3.502-9.13-1.305-2.08-2.475-3.944-2.475-5.717ZM64 104.302c-5.624 0-10.183-4.432-10.183-9.898 0-1.773 1.17-3.638 2.475-5.718 1.644-2.62 3.502-5.582 3.502-9.13 0-3.547-1.858-6.508-3.502-9.129-1.305-2.08-2.475-3.945-2.475-5.718 0-.237.009-.473.026-.707a9.798 9.798 0 0 1-.026-.707c0-1.773 1.17-3.638 2.475-5.718 1.644-2.62 3.502-5.581 3.502-9.13 0-3.547-1.858-6.508-3.502-9.129-1.305-2.08-2.475-3.945-2.475-5.718 0-5.465 4.559-9.898 10.182-9.898s10.182 4.433 10.182 9.898c0 1.721-1.102 3.399-2.36 5.313-1.672 2.542-3.617 5.501-3.617 9.535 0 3.547 1.858 6.509 3.502 9.13 1.305 2.08 2.475 3.944 2.475 5.717 0 .238-.008.474-.025.707.016.234.025.47.025.707 0 1.773-1.17 3.638-2.475 5.718-1.644 2.62-3.502 5.582-3.502 9.13 0 4.033 1.945 6.993 3.616 9.535 1.259 1.914 2.361 3.59 2.361 5.312 0 5.466-4.559 9.898-10.182 9.898Z"/>
</svg>
